HIERARCHY
ROOT Hips
{
 OFFSET 0.000000 0.000000 0.000000
 CHANNELS 6 Xposition Yposition Zposition Yrotation Xrotation Zrotation
 JOINT Chest
 {
  OFFSET 0.000000 9.585900 0.002600
  CHANNELS 3 Yrotation Xrotation Zrotation
  JOINT Chest2
  {
   OFFSET 0.000000 9.601200 -0.005300
   CHANNELS 3 Yrotation Xrotation Zrotation
   JOINT Chest3
   {
    OFFSET 0.000000 9.561800 0.000000
    CHANNELS 3 Yrotation Xrotation Zrotation
    JOINT Chest4
    {
     OFFSET 0.000000 9.552100 0.000000
     CHANNELS 3 Yrotation Xrotation Zrotation
     JOINT Neck
     {
      OFFSET 0.000000 14.453000 0.000000
      CHANNELS 3 Yrotation Xrotation Zrotation
      JOINT Head
      {
       OFFSET 0.000000 8.936500 -0.011300
       CHANNELS 3 Yrotation Xrotation Zrotation
       End Site
       {
        OFFSET 0.000000 17.073600 -0.006000
       }
      }
     }
     JOINT RightCollar
     {
      OFFSET -2.921100 9.558500 0.000000
      CHANNELS 3 Yrotation Xrotation Zrotation
      JOINT RightShoulder
      {
       OFFSET -13.519700 0.000000 0.000000
       CHANNELS 3 Yrotation Xrotation Zrotation
       JOINT RightElbow
       {
        OFFSET 0.000000 -29.696600 0.000000
        CHANNELS 3 Yrotation Xrotation Zrotation
        JOINT RightWrist
        {
         OFFSET 0.000000 -24.004700 0.000000
         CHANNELS 3 Yrotation Xrotation Zrotation
         End Site
         {
          OFFSET 0.000000 -17.728500 0.000000
         }
        }
       }
      }
     }
     JOINT LeftCollar
     {
      OFFSET 2.921100 9.558500 0.000000
      CHANNELS 3 Yrotation Xrotation Zrotation
      JOINT LeftShoulder
      {
       OFFSET 13.519700 0.000000 0.000000
       CHANNELS 3 Yrotation Xrotation Zrotation
       JOINT LeftElbow
       {
        OFFSET 0.000000 -29.696600 0.000000
        CHANNELS 3 Yrotation Xrotation Zrotation
        JOINT LeftWrist
        {
         OFFSET 0.000000 -24.004700 0.000000
         CHANNELS 3 Yrotation Xrotation Zrotation
         End Site
         {
          OFFSET 0.000000 -17.728500 0.000000
         }
        }
       }
      }
     }
    }
   }
  }
 }
 JOINT RightHip
 {
  OFFSET -7.771700 -0.012900 -0.001300
  CHANNELS 3 Yrotation Xrotation Zrotation
  JOINT RightKnee
  {
   OFFSET 0.000000 -40.869800 0.001200
   CHANNELS 3 Yrotation Xrotation Zrotation
   JOINT RightAnkle
   {
    OFFSET 0.000000 -39.717900 0.002100
    CHANNELS 3 Yrotation Xrotation Zrotation
    JOINT RightToe
    {
     OFFSET 0.000000 -4.965400 11.033500
     CHANNELS 3 Yrotation Xrotation Zrotation
     End Site
     {
      OFFSET 0.000000 -1.423100 5.872300
     }
    }
   }
  }
 }
 JOINT LeftHip
 {
  OFFSET 7.771700 -0.012900 -0.001300
  CHANNELS 3 Yrotation Xrotation Zrotation
  JOINT LeftKnee
  {
   OFFSET 0.000000 -40.869800 0.001200
   CHANNELS 3 Yrotation Xrotation Zrotation
   JOINT LeftAnkle
   {
    OFFSET 0.000000 -39.717900 0.002100
    CHANNELS 3 Yrotation Xrotation Zrotation
    JOINT LeftToe
    {
     OFFSET 0.000000 -4.965400 11.033500
     CHANNELS 3 Yrotation Xrotation Zrotation
     End Site
     {
      OFFSET 0.000000 -1.423100 5.872300
     }
    }
   }
  }
 }
}
MOTION
Frames: 7
Frame Time: 0.008333
0.000000 85.388000 0.000000 0.000000 -5.767877 0.000000 0.000000 11.653817 0.000000 0.000000 -5.885947 0.000000 0.000000 -0.000000 0.000000 0.000000 -0.000000 0.000000 0.000000 12.528835 0.000000 0.000000 0.711642 0.000000 0.000000 -0.000000 0.000000 0.000000 0.000000 -90.000000 0.000000 -2.309062 0.000000 0.000000 2.309062 0.000000 0.000000 -0.000000 0.000000 0.000000 -0.000000 90.000000 0.000000 -2.309062 0.000000 0.000000 2.309062 0.000000 0.000000 8.520406 0.000000 0.000000 1.905762 0.000000 -0.000000 -4.658285 0.000000 0.000000 -0.000000 0.000000 0.000000 8.520406 0.000000 0.000000 1.905762 0.000000 -0.000000 -4.658285 0.000000 0.000000 -0.000000 0.000000
-64.959699 50.344311 -3.029164 164.194512 -6.509497 0.122010 3.852491 6.143269 0.701478 0.179495 0.252686 -0.032988 0.250171 0.485649 -0.037742 3.329973 5.945962 -0.378156 2.618641 18.977492 0.343279 4.758328 -0.544937 -0.204212 1.290231 7.664868 0.344867 -12.673043 -12.777151 -6.494336 -73.024602 -70.926861 96.287956 -2.243886 0.067437 -22.322581 -5.537295 4.504850 -0.031496 25.302642 -6.792492 1.061603 70.294879 -69.639846 -93.175795 -1.852055 12.159879 4.401990 -1.830993 -73.851651 -4.400799 -121.384156 79.751613 -119.390048 -0.547971 -16.782993 0.092346 -0.757015 1.199295 -0.284512 -10.436874 -77.765837 26.394726 115.834343 77.950096 113.101643 -16.002121 -21.204157 0.098588 -0.112486 -1.469224 -0.122175
-64.968783 50.346752 -3.024027 164.125803 -6.472105 0.153597 3.860595 6.145902 0.686299 0.208733 0.234246 -0.042080 0.264741 0.476825 -0.042259 3.271680 6.038067 -0.362117 2.691045 18.901214 0.323267 4.866780 -0.594913 -0.242005 1.342379 7.602673 0.319011 -12.648332 -12.765066 -6.529086 -72.557544 -70.963684 95.900640 -2.188827 -0.120189 -21.846979 -5.487563 4.559860 -0.040858 25.403109 -6.778080 1.045312 70.384216 -69.626093 -93.244967 -1.815347 12.137904 4.483694 -1.639693 -73.885442 -4.487923 -121.104008 79.736157 -119.168198 -0.490705 -16.783545 0.155913 -0.827551 1.224964 -0.316750 -10.272217 -77.810208 26.281250 115.808792 77.946678 113.103218 -16.030369 -21.191978 0.089280 -0.087810 -1.477935 -0.102856
-64.968641 50.350036 -3.019820 164.093748 -6.451001 0.132368 3.840176 6.162320 0.722752 0.206114 0.235088 -0.043629 0.266711 0.480489 -0.043064 3.267000 6.077620 -0.363231 2.755630 18.893914 0.312009 4.948646 -0.676547 -0.297606 1.361845 7.624473 0.318313 -12.580638 -12.826883 -6.585980 -72.209810 -70.992244 95.597294 -2.150162 -0.234799 -21.421798 -5.459788 4.609927 -0.040775 25.497921 -6.724909 1.033926 70.473511 -69.600037 -93.308850 -1.776288 12.113813 4.560173 -1.515454 -73.889347 -4.473611 -120.719020 79.669490 -118.779701 -0.607673 -16.797715 0.175896 -0.723724 1.252183 -0.273023 -10.302927 -77.842882 26.302140 115.729199 77.913676 113.071953 -15.964438 -21.193319 0.078108 -0.138787 -1.476042 -0.119928
-64.981641 50.353190 -3.015252 164.059093 -6.398801 0.193057 3.817816 6.153772 0.679376 0.202338 0.237192 -0.049655 0.267747 0.483933 -0.043731 3.269034 6.099810 -0.362991 2.801080 18.870632 0.291647 5.038785 -0.717797 -0.350071 1.373285 7.662025 0.328481 -12.492297 -12.897810 -6.662943 -71.926097 -71.014779 95.328499 -2.122167 -0.288348 -21.070411 -5.448654 4.678578 -0.033815 25.583904 -6.661761 1.012099 70.550879 -69.563407 -93.352559 -1.737272 12.086546 4.630701 -1.196152 -73.935420 -4.703694 -120.411566 79.644033 -118.537283 -0.586484 -16.808463 0.261360 -0.769603 1.285731 -0.298162 -9.953728 -77.924467 25.890905 115.544914 77.848071 112.964938 -15.871049 -21.161980 0.083076 -0.187749 -1.509750 -0.190971
-64.980444 50.356937 -3.011912 164.020426 -6.366912 0.184852 3.811914 6.161011 0.710651 0.152987 0.279571 -0.025913 0.312640 0.446178 -0.070732 3.263519 6.122294 -0.366317 2.845324 18.850935 0.269097 5.127451 -0.752183 -0.406013 1.398642 7.680025 0.336796 -12.396343 -12.953704 -6.751359 -71.613183 -71.045188 95.008738 -2.103176 -0.310368 -20.813168 -5.440513 4.748162 -0.022763 25.656717 -6.591108 0.981746 70.613185 -69.516371 -93.371235 -1.698123 12.059940 4.701166 -1.112510 -73.958853 -4.683909 -120.143431 79.617419 -118.330490 -0.533436 -16.791645 0.344410 -0.846351 1.282764 -0.333204 -9.985866 -77.958017 25.930250 115.422141 77.841551 112.929435 -15.948939 -21.164741 0.002261 -0.079564 -1.506506 -0.145460
-64.981737 50.360817 -3.011535 164.001656 -6.335549 0.206763 3.789079 6.168864 0.712652 0.152520 0.281091 -0.026103 0.267448 0.492776 -0.045307 3.288360 6.100791 -0.399141 2.887180 18.836813 0.244925 5.170887 -0.789355 -0.443801 1.430255 7.703178 0.348288 -12.290001 -13.014034 -6.850023 -71.285630 -71.089989 94.654729 -2.087155 -0.300394 -20.662581 -5.434652 4.818313 -0.010207 25.713189 -6.517395 0.946102 70.650772 -69.463576 -93.355043 -1.658521 12.036399 4.776156 -0.934879 -73.984623 -4.786154 -119.962138 79.587343 -118.191471 -0.527827 -16.794497 0.402112 -0.871397 1.286099 -0.346441 -9.890271 -77.995304 25.826643 115.339003 77.828199 112.889194 -15.969993 -21.152800 -0.027980 -0.062003 -1.515287 -0.123221
